<svg id="Layer_1" data-name="Layer 1" xmlns="http://www.w3.org/2000/svg" xmlns:xlink="http://www.w3.org/1999/xlink" width="168" height="95" viewBox="0 0 168 95"><defs><style>.cls-1{fill:none;}.cls-2{clip-path:url(#clip-path);}.cls-3{fill:url(#linear-gradient);}.cls-4{clip-path:url(#clip-path-2);}.cls-5{fill:url(#linear-gradient-2);}.cls-6{clip-path:url(#clip-path-3);}.cls-7{fill:url(#linear-gradient-3);}.cls-8{clip-path:url(#clip-path-4);}.cls-9{fill:url(#linear-gradient-4);}.cls-10{fill:#5d7471;}.cls-11{fill:#4d6562;}</style><clipPath id="clip-path"><path class="cls-1" d="M36.59,0C34.25,0,21.32,1.44,21.32,16s6.33,17.56,7.37,28.75a21.72,21.72,0,0,1-.41,5.54l-3.46,9.51a7.14,7.14,0,0,1-.45.58s27.66-30.9,27-45.27S38.93,0,36.59,0Z"/></clipPath><linearGradient id="linear-gradient" x1="-325.41" y1="381.96" x2="-324.48" y2="381.96" gradientTransform="translate(16234.47 -1280.98) rotate(45) scale(32.41)" gradientUnits="userSpaceOnUse"><stop offset="0" stop-color="#ffcb00"/><stop offset="1" stop-color="#f07f0a"/></linearGradient><clipPath id="clip-path-2"><path class="cls-1" d="M24.16,53.61c-2.25,1.26-6,2.7-10.93,4.86-7.76,3.45-8.17,7.27-8.17,7.27a2.33,2.33,0,0,0,0,.49v.07c0,1.07.58,3.29,5.08,3.29,5.92,0,14.28-9.25,14.28-9.25l.45-.58a22.15,22.15,0,0,0,3.46-9.51c0,.08-.29,1.21-4.13,3.36m4.12-3.34h0"/></clipPath><linearGradient id="linear-gradient-2" x1="-348.61" y1="398.46" x2="-347.69" y2="398.46" gradientTransform="translate(951.59 -16424.65) rotate(-37.9) scale(31.2)" gradientUnits="userSpaceOnUse"><stop offset="0" stop-color="#8970b2"/><stop offset="1" stop-color="#663d92"/></linearGradient><clipPath id="clip-path-3"><path class="cls-1" d="M60.78,28.75A82.81,82.81,0,0,0,45.21,41.68s-1.26,3.05-1.44,9.43c0,.81,0,1.57,0,2.28,1-.75,3.18-2.19,7.86-2.91,3.91-.6,10.84-.54,21.62-3s19.23-8.74,19.23-16.35-8.45-9.59-12.64-9.59-10.18,1.64-19.1,7.2"/></clipPath><linearGradient id="linear-gradient-3" x1="-347.57" y1="364.97" x2="-346.65" y2="364.97" gradientTransform="translate(-10364.69 26983.17) rotate(157.6) scale(57.37)" gradientUnits="userSpaceOnUse"><stop offset="0" stop-color="#008dd5"/><stop offset="1" stop-color="#21499c"/></linearGradient><clipPath id="clip-path-4"><path class="cls-1" d="M28.33,70.61c-.63,12.49,6.38,12.85,10.15,12.85s8.8-3.77,8.8-11.59c0-7.27-3-8.79-3.46-18.47,0-.71,0-1.47,0-2.28.18-6.38,1.44-9.43,1.44-9.43S29,58.12,28.33,70.61"/></clipPath><linearGradient id="linear-gradient-4" x1="-357.7" y1="385.98" x2="-356.78" y2="385.98" gradientTransform="translate(-15152.35 -18355.19) rotate(-82.3) scale(45.39)" gradientUnits="userSpaceOnUse"><stop offset="0" stop-color="#b4d012"/><stop offset="1" stop-color="#29a535"/></linearGradient></defs><title>logo-novis</title><g class="cls-2"><polygon class="cls-3" points="36.69 -15.35 82.22 30.19 36.69 75.73 -8.86 30.19 36.69 -15.35"/></g><g class="cls-4"><polygon class="cls-5" points="-4.36 57.58 19.5 39 37.66 62.32 13.8 80.89 -4.36 57.58"/></g><g class="cls-6"><polygon class="cls-7" points="103.73 48.78 50.85 70.57 32.56 26.19 85.44 4.39 103.73 48.78"/></g><g class="cls-8"><polygon class="cls-9" points="22.16 82.7 28.05 39.08 52.82 42.44 46.93 86.05 22.16 82.7"/></g><path class="cls-10" d="M162.71,76c0-4.74-3.68-6.37-8.14-8.1-2.84-1.07-3.86-1.67-3.86-2.93,0-.79.69-1.77,2.38-1.77a19.93,19.93,0,0,1,6.14,1.07c.69.23.93.23,1.16-.46l1.16-3c.23-.75.28-1-.42-1.3a20.7,20.7,0,0,0-8.19-1.58c-6.14,0-9.07,3.25-9.07,7.3,0,3.82,2.75,5.68,7.67,7.53,3.11,1.16,4.23,1.86,4.23,3.11s-.79,2-3,2a22.68,22.68,0,0,1-7.21-1.67c-.69-.32-.93-.18-1.26.51L142.94,80c-.32.61-.23.89.28,1.21A20.36,20.36,0,0,0,153,83.46c5.77,0,9.68-2.47,9.68-7.49m-23,6.14V59.36c0-.69-.14-.84-1-.84H134c-.69,0-1,.14-1,.84V82.11c0,.69.28.84,1,.84h4.74c.89,0,1-.15,1-.84m.6-30a3.89,3.89,0,0,0-7.77,0,3.89,3.89,0,0,0,7.77,0M123.5,80.71l7.26-21.44c.18-.51,0-.74-.51-.74h-5.17c-1,0-1.12.18-1.3.89l-2.84,9.45-2.14,7.91h-.28l-2.14-7.86-3-9.54c-.23-.69-.42-.84-1.4-.84h-5.26c-.6,0-.84.14-.6.84l7.63,21.35c.75,2,1.53,2.47,3,2.47h3.48c1.72,0,2.51-.4,3.21-2.49m-24.79-10c0,3.91-1.3,7-4.79,7s-4.7-2.47-4.7-7.12c0-4.28,1.53-7,4.83-7,3.48,0,4.65,2.93,4.65,7.12m7-.14c0-8-4-12.7-11.77-12.7-7.26,0-11.72,4.79-11.72,12.79s3.59,12.75,11.63,12.75,11.86-4.65,11.86-12.84M67.08,63.5c4.37,0,5.58,2,5.58,6V82.11c0,.69.28.84,1,.84h4.83c.89,0,1-.14,1-.84V70c0-8.79-4-12.05-12.65-12.05a56.65,56.65,0,0,0-6.75.46c-2.38.51-2.88,1.67-2.88,3.77v20c0,.69.28.84,1,.84h4.79c.89,0,1-.14,1-.84V63.73a18.18,18.18,0,0,1,3.16-.23"/><path class="cls-11" d="M59.54,94.9h-.48c-.1,0-.13,0-.13-.12V89.2h-1.8c-.1,0-.11,0-.11-.12v-.37c0-.1,0-.13.11-.13h4.38c.1,0,.12,0,.12.13v.37c0,.1,0,.12-.12.12H59.64v5.58c0,.1,0,.12-.1.12"/><path class="cls-11" d="M65.94,94.9h-.43c-.1,0-.13,0-.13-.12V92.13c0-1-.41-1.5-1.31-1.5a3.36,3.36,0,0,0-1.2.21v3.93c0,.1,0,.12-.13.12h-.41c-.08,0-.13,0-.13-.12V88.42c0-.1,0-.12.13-.12h.41c.1,0,.13,0,.13.12v1.87a3.91,3.91,0,0,1,1.31-.22c1.36,0,1.88.79,1.88,2.09v2.63c0,.1,0,.12-.11.12"/><path class="cls-11" d="M69,90.62c-.85,0-1.31.68-1.36,1.54h2.7c0-.82-.29-1.54-1.34-1.54m2,1.46c0,.51-.27.62-.6.62H67.59c0,1.27.67,1.71,1.51,1.71a2.4,2.4,0,0,0,1.06-.25c.07,0,.13,0,.16,0l.17.31c0,.07,0,.13,0,.16a2.72,2.72,0,0,1-1.38.32c-1.32,0-2.13-.74-2.13-2.44s.87-2.49,2.06-2.49a1.8,1.8,0,0,1,2,2"/><path class="cls-11" d="M77.77,94.9h-.42c-.08,0-.13,0-.13-.12V92.37c0-1.16-.31-1.72-1.54-1.72a5.35,5.35,0,0,0-1,.09v4c0,.1,0,.12-.13.12h-.41c-.08,0-.13,0-.13-.12v-4a.53.53,0,0,1,.49-.59,10.2,10.2,0,0,1,1.18-.09c1.54,0,2.16.64,2.16,2.27v2.45c0,.09,0,.11-.11.11"/><path class="cls-11" d="M80.83,90.62c-.85,0-1.32.68-1.36,1.54h2.7c0-.82-.3-1.54-1.34-1.54m2,1.46c0,.51-.27.62-.6.62H79.43c0,1.27.67,1.71,1.51,1.71A2.4,2.4,0,0,0,82,94.16c.07,0,.13,0,.16,0l.17.31c0,.07,0,.13,0,.16A2.72,2.72,0,0,1,80.9,95c-1.32,0-2.13-.74-2.13-2.44s.87-2.49,2.06-2.49a1.8,1.8,0,0,1,2,2"/><path class="cls-11" d="M85.84,92.5l-.67,2.1c-.06.2-.14.33-.38.33h-.29c-.19,0-.31-.06-.37-.36l-1-4.33c0-.06,0-.09.06-.09h.51c.07,0,.08,0,.11.08l.58,2.84.23,1.16h0L85,93.13l.73-2.46a.36.36,0,0,1,.38-.31h.23c.22,0,.27.13.33.32L87.41,93l.37,1.26h0L88.07,93l.57-2.79c0-.06,0-.08.11-.08h.5c.06,0,.08,0,.06.09l-1,4.33c-.06.3-.21.36-.4.36h-.26c-.24,0-.31-.07-.39-.33l-.66-2.13-.38-1.34h0Z"/><path class="cls-11" d="M94.34,92.5l-.67,2.1c-.06.2-.14.33-.38.33H93c-.19,0-.31-.06-.37-.36l-1-4.33c0-.06,0-.09.06-.09h.51c.07,0,.08,0,.11.08l.58,2.84.23,1.16h0l.32-1.08.73-2.46a.36.36,0,0,1,.38-.31h.23c.22,0,.27.13.33.32L95.91,93l.37,1.26h0L96.57,93l.57-2.79c0-.06,0-.08.11-.08h.5c.06,0,.08,0,.06.09l-1,4.33c-.06.3-.21.36-.4.36h-.26c-.24,0-.31-.07-.39-.33l-.66-2.13-.38-1.34h0Z"/><path class="cls-11" d="M100.29,90.62c-1,0-1.42.88-1.42,1.89s.35,1.94,1.4,1.94,1.41-1,1.41-1.91-.28-1.91-1.4-1.91m0,4.37c-1.33,0-2.05-.85-2.05-2.46s.87-2.47,2.08-2.47,2.06.91,2.06,2.45S101.61,95,100.26,95"/><path class="cls-11" d="M105.9,91.18a1.88,1.88,0,0,0-1.31-.53,2.24,2.24,0,0,0-.62.06v4.06c0,.1,0,.12-.13.12h-.41c-.08,0-.12,0-.12-.12V90.71c0-.37.09-.54.48-.59a5.61,5.61,0,0,1,.75-.06,2.57,2.57,0,0,1,1.77.62.08.08,0,0,1,0,.13l-.28.36c-.06.06-.09,0-.14,0"/><path class="cls-11" d="M108.28,94.89a1.75,1.75,0,0,1-.63.1c-.57,0-.77-.28-.77-.86V88.42c0-.1,0-.12.13-.12h.42c.1,0,.13,0,.13.12v5.51c0,.35.07.47.33.47a3,3,0,0,0,.32,0c.06,0,.1,0,.11.07l0,.3c0,.1,0,.11-.09.15"/><path class="cls-11" d="M111,94.43a3.76,3.76,0,0,0,1.14-.19V90.81a3.08,3.08,0,0,0-1.11-.19c-.89,0-1.52.62-1.52,2s.6,1.84,1.49,1.84m0-4.36a4,4,0,0,1,1.16.16v-1.8c0-.1,0-.12.13-.12h.43c.08,0,.12,0,.12.12v6.12a.14.14,0,0,1-.09.15,4.77,4.77,0,0,1-1.83.31c-1.48,0-2.06-.92-2.06-2.4s.67-2.53,2.15-2.53"/><path class="cls-11" d="M118,90.62c-1,0-1.42.88-1.42,1.89s.35,1.94,1.4,1.94,1.41-1,1.41-1.91-.28-1.91-1.4-1.91M118,95c-1.33,0-2.05-.85-2.05-2.46s.87-2.47,2.08-2.47,2.07.91,2.07,2.45S119.32,95,118,95"/><path class="cls-11" d="M123.27,88.89a3.14,3.14,0,0,0-.62-.06c-.58,0-.74.27-.74.66v.67h1.22c.1,0,.11,0,.11.12v.31c0,.06,0,.11-.11.11h-1.22v4.09c0,.1,0,.11-.12.11h-.42c-.1,0-.13,0-.13-.11V90.69h-.71c-.1,0-.12,0-.12-.11v-.18a.13.13,0,0,1,.12-.14,6.73,6.73,0,0,1,.71-.12v-.66a1.13,1.13,0,0,1,1.28-1.27,3,3,0,0,1,.87.11c.08,0,.07.06.06.13l-.07.35a.1.1,0,0,1-.12.07"/><path class="cls-11" d="M126.8,94.9h-.41c-.08,0-.13,0-.13-.12v-4.5c0-.1,0-.12.13-.12h.41c.1,0,.13,0,.13.12v4.5c0,.1,0,.12-.13.12m-.2-5.59a.45.45,0,0,1-.45-.44.46.46,0,0,1,.45-.46.46.46,0,0,1,.45.46.44.44,0,0,1-.45.44"/><path class="cls-11" d="M131.89,94.9h-.42c-.08,0-.13,0-.13-.12V92.37c0-1.16-.31-1.72-1.54-1.72a5.27,5.27,0,0,0-1,.09v4c0,.1,0,.12-.13.12h-.41c-.08,0-.13,0-.13-.12v-4a.53.53,0,0,1,.49-.59,10.2,10.2,0,0,1,1.18-.09c1.54,0,2.16.64,2.16,2.27v2.45c0,.09,0,.11-.12.11"/><path class="cls-11" d="M134.57,95a4,4,0,0,1-1.71-.35.1.1,0,0,1-.06-.16l.15-.31a.12.12,0,0,1,.17-.06,3.59,3.59,0,0,0,1.44.32c.61,0,1-.25,1-.76s-.43-.7-1.17-1c-1-.36-1.42-.68-1.42-1.36s.56-1.28,1.58-1.28a3.57,3.57,0,0,1,1.4.26.11.11,0,0,1,.06.16l-.15.35c0,.06-.06.06-.13,0a3,3,0,0,0-1.21-.24c-.55,0-.92.28-.92.67s.31.62,1.14.92,1.45.64,1.45,1.44S135.53,95,134.57,95"/><path class="cls-11" d="M137.18,90.15h.41c.1,0,.13,0,.13.12v2.45c0,1.17.22,1.68,1.5,1.68a5.12,5.12,0,0,0,1-.09v-4c0-.1,0-.12.13-.12h.42c.08,0,.13,0,.13.12v4a.55.55,0,0,1-.5.59,10.77,10.77,0,0,1-1.17.08c-1.55,0-2.11-.58-2.11-2.21v-2.5c0-.1,0-.12.12-.12"/><path class="cls-11" d="M144.55,91.18a1.88,1.88,0,0,0-1.31-.53,2.24,2.24,0,0,0-.62.06v4.06c0,.1,0,.12-.13.12h-.41c-.08,0-.12,0-.12-.12V90.71c0-.37.09-.54.48-.59a5.61,5.61,0,0,1,.75-.06,2.57,2.57,0,0,1,1.77.62.08.08,0,0,1,0,.13l-.28.36c-.06.06-.09,0-.14,0"/><path class="cls-11" d="M147.21,92.5c-.44,0-1.3.08-1.3,1,0,.73.6.92,1.26.92a4.64,4.64,0,0,0,1.21-.18V92.5h-1.16Zm1.71,2.2a4.76,4.76,0,0,1-1.75.3c-1.53,0-1.92-.72-1.92-1.48s.61-1.6,1.93-1.6h1.2v-.24c0-.61-.19-1-1.16-1a5,5,0,0,0-1.27.19c-.08,0-.13,0-.16-.06l-.09-.32a.11.11,0,0,1,.07-.14,4.47,4.47,0,0,1,1.54-.26c1.16,0,1.71.53,1.71,1.53v2.89a.2.2,0,0,1-.12.22"/><path class="cls-11" d="M153.81,94.9h-.42c-.08,0-.13,0-.13-.12V92.37c0-1.16-.31-1.72-1.54-1.72a5.2,5.2,0,0,0-1,.09v4c0,.1,0,.12-.13.12h-.41c-.08,0-.13,0-.13-.12v-4a.53.53,0,0,1,.49-.59,10.2,10.2,0,0,1,1.18-.09c1.54,0,2.16.64,2.16,2.27v2.45c0,.09,0,.11-.12.11"/><path class="cls-11" d="M158.08,94.15c.1,0,.13,0,.17,0l.15.31c.06.07,0,.12,0,.17a3.23,3.23,0,0,1-1.49.32c-1.34,0-2-.8-2-2.41s.82-2.51,2.13-2.51a2.7,2.7,0,0,1,1.31.31c.07,0,.09.1,0,.17l-.17.31c0,.06-.06.09-.16,0a2.42,2.42,0,0,0-1-.24c-1,0-1.47.92-1.47,1.93s.35,1.85,1.48,1.85a2.89,2.89,0,0,0,1.13-.3"/><path class="cls-11" d="M161,90.62c-.85,0-1.31.68-1.36,1.54h2.7c0-.82-.3-1.54-1.34-1.54m2,1.46c0,.51-.27.62-.6.62h-2.75c0,1.27.67,1.71,1.51,1.71a2.4,2.4,0,0,0,1.06-.25c.07,0,.13,0,.16,0l.17.31c0,.07,0,.13,0,.16a2.72,2.72,0,0,1-1.38.32c-1.33,0-2.13-.74-2.13-2.44s.87-2.49,2.06-2.49a1.8,1.8,0,0,1,1.94,2"/></svg>
